<svg xmlns="http://www.w3.org/2000/svg" viewBox="0 0 100 100" width="32" height="32">
  <!-- Cream background circle -->
  <circle cx="50" cy="50" r="50" fill="#FAF7F2"/>
  <!-- Turiya logo mark, rotated -45deg around centre -->
  <g transform="rotate(-45 50 50)">
    <path d="M6 6 L38 6 Q44 6, 44 12 L18 38 Q12 44, 6 44 L6 6 Z" fill="#1C1A17"/>
    <path d="M56 6 L94 6 L94 38 Q94 44, 88 44 L56 12 Q56 6, 62 6 Z" fill="#F5A623"/>
    <path d="M94 56 L94 94 L62 94 Q56 94, 56 88 L82 62 Q88 56, 94 56 Z" fill="#1C1A17"/>
    <circle cx="25" cy="75" r="12" fill="#F5A623" opacity="0.2"/>
    <circle cx="25" cy="75" r="6" fill="#F5A623"/>
    <circle cx="25" cy="75" r="2.2" fill="#8B1A1A"/>
  </g>
</svg>
